HIERARCHY
ROOT Hips
{
	OFFSET 0.000000 0.000000 0.000000
	CHANNELS 6 Xposition Yposition Zposition Zrotation Yrotation Xrotation 
	JOINT LowerBack
	{
		OFFSET 0.000000 0.000000 0.000000
		CHANNELS 3 Zrotation Yrotation Xrotation
		JOINT Spine
		{
			OFFSET 0.028270 2.035590 -0.193380
			CHANNELS 3 Zrotation Yrotation Xrotation
			JOINT Spine1
			{
				OFFSET 0.056720 2.048850 -0.042750
				CHANNELS 3 Zrotation Yrotation Xrotation
				JOINT Neck
				{
					OFFSET 0.000000 0.000000 0.000000
					CHANNELS 3 Zrotation Yrotation Xrotation
					JOINT Neck1
					{
						OFFSET -0.054170 1.746240 0.172020
						CHANNELS 3 Zrotation Yrotation Xrotation
						JOINT Head
						{
							OFFSET 0.104070 1.761360 -0.123970
							CHANNELS 3 Zrotation Yrotation Xrotation
							End Site
							{
								OFFSET 0.000000 0.000000 0.000000
							}
						}
					}
				}
				JOINT LeftShoulder
				{
					OFFSET 0.000000 0.000000 0.000000
					CHANNELS 3 Zrotation Yrotation Xrotation
					JOINT LeftArm
					{
						OFFSET 3.362410 1.200890 -0.311210
						CHANNELS 3 Zrotation Yrotation Xrotation
						JOINT LeftForeArm
						{
							OFFSET 4.983000 -0.000000 -0.000000
							CHANNELS 3 Zrotation Yrotation Xrotation
							JOINT LeftHand
							{
								OFFSET 3.483560 -0.000000 -0.000000
								CHANNELS 3 Zrotation Yrotation Xrotation
								JOINT LeftFingerBase
								{
									OFFSET 0.000000 0.000000 0.000000
									CHANNELS 3 Zrotation Yrotation Xrotation
									JOINT LeftHandIndex1
									{
										OFFSET 0.715260 -0.000000 -0.000000
										CHANNELS 3 Zrotation Yrotation Xrotation
										End Site
										{
											OFFSET 0.000000 0.000000 0.000000
										}
									}
								}
								JOINT LThumb
								{
									OFFSET 0.000000 0.000000 0.000000
									CHANNELS 3 Zrotation Yrotation Xrotation
									End Site
									{
										OFFSET 0.000000 0.000000 0.000000
									}
								}
							}
						}
					}
				}
				JOINT RightShoulder
				{
					OFFSET 0.000000 0.000000 0.000000
					CHANNELS 3 Zrotation Yrotation Xrotation
					JOINT RightArm
					{
						OFFSET -3.136600 1.374050 -0.404650
						CHANNELS 3 Zrotation Yrotation Xrotation
						JOINT RightForeArm
						{
							OFFSET -5.241900 -0.000000 -0.000000
							CHANNELS 3 Zrotation Yrotation Xrotation
							JOINT RightHand
							{
								OFFSET -3.444170 -0.000000 -0.000000
								CHANNELS 3 Zrotation Yrotation Xrotation
								JOINT RightFingerBase
								{
									OFFSET 0.000000 0.000000 0.000000
									CHANNELS 3 Zrotation Yrotation Xrotation
									JOINT RightHandIndex1
									{
										OFFSET -0.622530 -0.000000 -0.000000
										CHANNELS 3 Zrotation Yrotation Xrotation
										End Site
										{
											OFFSET 0.000000 0.000000 0.000000
										}
									}
								}
								JOINT RThumb
								{
									OFFSET 0.000000 0.000000 0.000000
									CHANNELS 3 Zrotation Yrotation Xrotation
									End Site
									{
										OFFSET 0.000000 0.000000 0.000000
									}
								}
							}
						}
					}
				}
			}
		}
	}
}
}
MOTION
Frames: 14
Frame Time: 0.008333
-11.713572 15.713862 -3.343658 -69.976033 84.145657 -38.957523 1.429138 0.438750 10.681782 -0.602044 0.826909 -1.465490 -6.118819 0.827069 -2.765014 10.631609 -5.437660 -6.600602 -2.498521 -0.172790 -0.195783 0.000000 0.000000 0.000000 0.209462 9.077683 2.486534 -72.053982 28.033830 6.702705 -179.996667 -87.753899 179.976216 7.464583 1.704381 0.101843 -0.091534 0.178121 -0.000000 0.000000 0.000000 0.000000 0.000000 0.000000 0.000000 8.748490 1.978168 0.506287 65.385554 2.202735 10.999007 179.411477 78.780993 179.983470 -2.771903 3.972206 -0.109237 0.064971 -0.480021 0.000000 0.000000 0.000000 0.000000 0.000000 0.000000 0.000000 
-11.515505 15.676124 -3.353361 -67.410559 83.572103 -36.738310 1.461428 0.440052 10.701327 -0.614305 0.822411 -1.466985 -6.213659 0.820716 -2.773525 10.691544 -5.412343 -6.546490 -2.556565 -0.177731 -0.177492 0.000000 0.000000 0.000000 0.044396 8.827852 2.453931 -71.539107 27.012635 6.831100 179.986906 -88.384969 179.974942 7.820145 1.981208 0.126177 -0.099848 0.174592 -0.000000 0.000000 0.000000 0.000000 0.000000 0.000000 0.000000 9.123950 1.921156 0.557732 65.626777 1.709272 11.473224 179.459434 79.783486 179.985015 -2.588389 4.086679 -0.104443 0.059633 -0.473934 -0.000000 0.000000 0.000000 0.000000 0.000000 0.000000 0.000000 
-11.320182 15.643140 -3.360761 -65.401089 83.109586 -35.042631 1.478482 0.419223 10.722446 -0.628418 0.794477 -1.465176 -6.304834 0.791080 -2.773762 10.727003 -5.386525 -6.483710 -2.617589 -0.182897 -0.157417 0.000000 0.000000 0.000000 -0.129688 8.545926 2.422628 -70.927655 25.797595 7.039075 179.967201 -89.127078 179.973357 8.229865 2.306314 0.156816 -0.109531 0.170919 -0.000000 0.000000 0.000000 0.000000 0.000000 0.000000 0.000000 9.498410 1.831632 0.603508 65.910952 1.180519 11.866737 179.516350 80.901401 179.986112 -2.463407 4.223820 -0.102151 0.055044 -0.467482 0.000000 0.000000 0.000000 0.000000 0.000000 0.000000 0.000000 
-11.128035 15.615527 -3.366084 -63.792922 82.758234 -33.719583 1.488416 0.376559 10.751835 -0.642567 0.744067 -1.459190 -6.392403 0.739121 -2.768424 10.734921 -5.368513 -6.411785 -2.680753 -0.188226 -0.135450 0.000000 0.000000 0.000000 -0.325858 8.212681 2.392573 -70.223735 24.418701 7.296154 179.944361 -89.950075 179.971455 8.687621 2.667770 0.193759 -0.120299 0.167267 0.000000 0.000000 0.000000 0.000000 0.000000 0.000000 0.000000 9.866473 1.699997 0.646038 66.232460 0.632909 12.179814 179.581582 82.144640 179.986595 -2.426648 4.372341 -0.103561 0.051909 -0.460456 0.000000 0.000000 0.000000 0.000000 0.000000 0.000000 0.000000 
-10.939412 15.593667 -3.369593 -62.464068 82.509493 -32.649775 1.496544 0.314833 10.795101 -0.655352 0.674506 -1.447587 -6.475092 0.668220 -2.757167 10.714267 -5.359923 -6.332787 -2.744839 -0.193592 -0.112298 0.000000 0.000000 0.000000 -0.537888 7.832333 2.365209 -69.442809 22.882212 7.587447 -0.081776 -89.159361 -0.030767 9.182214 3.053437 0.236602 -0.131857 0.163898 0.000000 0.000000 0.000000 0.000000 0.000000 0.000000 0.000000 10.221102 1.527380 0.685484 66.584805 0.075058 12.406484 179.653934 83.510221 179.986310 -2.507673 4.515661 -0.109971 0.050755 -0.452639 0.000000 0.000000 0.000000 0.000000 0.000000 0.000000 0.000000 
-10.754667 15.577731 -3.371602 -61.325869 82.348961 -31.746765 1.508029 0.237721 10.855965 -0.665501 0.589899 -1.429489 -6.551693 0.582529 -2.740106 10.665561 -5.360655 -6.248558 -2.808604 -0.198875 -0.088546 0.000000 0.000000 0.000000 -0.757268 7.410807 2.341788 -68.604176 21.200062 7.893733 -0.111148 -88.220013 -0.033296 9.699870 3.449201 0.284344 -0.143880 0.161094 0.000000 0.000000 0.000000 0.000000 0.000000 0.000000 0.000000 10.555771 1.318335 0.722321 66.958652 -0.485182 12.543505 179.731401 84.987647 179.985126 -2.736015 4.630438 -0.122580 0.052049 -0.443778 0.000000 0.000000 0.000000 0.000000 0.000000 0.000000 0.000000 
-10.574040 15.567697 -3.372367 -60.312595 82.258128 -30.945618 1.527501 0.149443 10.936058 -0.671949 0.494771 -1.404631 -6.621104 0.486598 -2.717966 10.591051 -5.368974 -6.160505 -2.870695 -0.203963 -0.064612 0.000000 0.000000 0.000000 -0.972059 6.954835 2.323231 -67.730239 19.390233 8.193137 -0.143411 -87.255101 -0.036108 10.224322 3.839261 0.335584 -0.156032 0.159155 0.000000 0.000000 0.000000 0.000000 0.000000 0.000000 0.000000 10.864292 1.080592 0.757309 67.344135 -1.041908 12.591248 179.811210 86.557967 179.982949 -3.138239 4.688700 -0.141988 0.056122 -0.433643 0.000000 0.000000 0.000000 0.000000 0.000000 0.000000 0.000000 
-10.397745 15.563322 -3.372126 -59.374766 82.216456 -30.195740 1.558751 0.054218 11.034900 -0.673826 0.393545 -1.372830 -6.682144 0.384916 -2.690103 10.494698 -5.383371 -6.070836 -2.929704 -0.208735 -0.041115 0.000000 0.000000 0.000000 -1.166055 6.479491 2.309722 -66.844623 17.465041 8.468955 -0.178093 -86.285271 -0.039174 10.739128 4.208410 0.388018 -0.168050 0.158381 0.000000 0.000000 0.000000 0.000000 0.000000 0.000000 0.000000 11.141789 0.822441 0.790664 67.729589 -1.589604 12.555168 179.890017 88.194039 179.979735 -3.734880 4.659943 -0.167596 0.063141 -0.422046 0.000000 0.000000 0.000000 0.000000 0.000000 0.000000 0.000000 
-10.225811 15.564312 -3.371015 -58.481694 82.203573 -29.464664 1.605697 -0.043775 11.149167 -0.670555 0.290450 -1.335960 -6.734759 0.281596 -2.661094 10.380904 -5.397821 -5.976470 -2.984642 -0.213185 -0.017012 0.000000 0.000000 0.000000 -1.327387 5.977061 2.300764 -65.969096 15.467972 8.687530 -0.213903 -85.348567 -0.042434 11.226814 4.541459 0.439048 -0.179603 0.158993 0.000000 0.000000 0.000000 0.000000 0.000000 0.000000 0.000000 11.384047 0.557069 0.824614 68.105005 -2.133500 12.441572 179.964129 89.859686 179.975501 -4.536304 4.514450 -0.197304 0.073059 -0.408907 0.000000 0.000000 0.000000 0.000000 0.000000 0.000000 0.000000 
-10.058199 15.570209 -3.369119 -57.616004 82.201033 -28.731076 1.670055 -0.141152 11.274431 -0.661875 0.188876 -1.294864 -6.778372 0.180052 -2.630912 10.255718 -5.409344 -5.877903 -3.034381 -0.217249 0.007662 0.000000 0.000000 0.000000 -1.437347 5.461435 2.295025 -65.124404 13.417123 8.834624 -0.249755 -84.467422 -0.045842 11.672528 4.826901 0.486172 -0.190535 0.161197 0.000000 0.000000 0.000000 0.000000 0.000000 0.000000 0.000000 11.588935 0.294449 0.859435 68.459986 -2.675770 12.263044 0.030095 88.486672 -0.029668 -5.539694 4.227810 -0.226213 0.085621 -0.394234 0.000000 0.000000 0.000000 0.000000 0.000000 0.000000 0.000000 
-9.894747 15.580500 -3.366338 -56.764881 82.194192 -27.977518 1.751880 -0.235476 11.404412 -0.647879 0.091178 -1.250395 -6.812653 0.082721 -2.598022 10.125446 -5.417028 -5.776478 -3.077840 -0.220853 0.032682 0.000000 0.000000 0.000000 -1.479116 4.952806 2.290431 -64.324583 11.322193 8.904678 -0.284576 -83.660075 -0.049359 12.063901 5.058541 0.527189 -0.200806 0.165107 0.000000 0.000000 0.000000 0.000000 0.000000 0.000000 0.000000 11.755277 0.041799 0.894599 68.785295 -3.218312 12.036595 0.085107 86.890385 -0.035615 -6.725747 3.785679 -0.247523 0.100364 -0.378161 0.000000 0.000000 0.000000 0.000000 0.000000 0.000000 0.000000 
-9.735177 15.594666 -3.362562 -55.933380 82.172800 -27.204881 1.851138 -0.325371 11.532819 -0.628817 -0.001383 -1.203765 -6.838042 -0.009086 -2.562041 9.996124 -5.420094 -5.671949 -3.114368 -0.223983 0.058302 0.000000 0.000000 0.000000 -1.441188 4.464467 2.284500 -63.578264 9.198688 8.891424 -0.317109 -82.946880 -0.052935 12.390852 5.233497 0.560403 -0.210390 0.170754 0.000000 0.000000 0.000000 0.000000 0.000000 0.000000 0.000000 11.883535 -0.195098 0.929757 69.074591 -3.767059 11.780539 0.127429 85.397479 -0.042111 -8.058244 3.188656 -0.252736 0.116652 -0.360966 0.000000 0.000000 0.000000 0.000000 0.000000 0.000000 0.000000 
-9.579166 15.612216 -3.357589 -55.141107 82.132505 -26.430190 1.967114 -0.410160 11.654099 -0.605291 -0.088280 -1.157438 -6.855773 -0.094997 -2.527512 9.872478 -5.411790 -5.558281 -3.144012 -0.226748 0.086469 0.000000 0.000000 0.000000 -1.317382 3.985060 2.275147 -62.888085 7.088736 8.777098 -0.345506 -82.357589 -0.056490 12.644213 5.351583 0.584611 -0.219144 0.178063 0.000000 0.000000 0.000000 0.000000 0.000000 0.000000 0.000000 11.974808 -0.405649 0.965918 69.324835 -4.339974 11.506122 0.156568 84.054057 -0.048862 -9.482955 2.456438 -0.234552 0.133647 -0.343116 0.000000 0.000000 0.000000 0.000000 0.000000 0.000000 0.000000 
-9.426253 15.632666 -3.351188 -54.400260 82.073294 -25.662826 2.097620 -0.490879 11.763641 -0.577858 -0.170641 -1.110433 -6.866571 -0.175796 -2.486945 9.759910 -5.402280 -5.441612 -3.166233 -0.229042 0.115510 0.000000 0.000000 0.000000 -1.105450 3.555847 2.259785 -62.244859 4.964184 8.587439 -0.369587 -81.888246 -0.060008 12.822256 5.421669 0.600114 -0.227297 0.186905 0.000000 0.000000 0.000000 0.000000 0.000000 0.000000 0.000000 12.032526 -0.598239 0.999178 69.531941 -4.929256 11.239181 0.173534 82.894533 -0.055542 -10.937188 1.626367 -0.188469 0.150560 -0.325133 0.000000 0.000000 0.000000 0.000000 0.000000 0.000000 0.000000 
